<svg width="85" height="85" viewBox="0 0 85 85" fill="none" xmlns="http://www.w3.org/2000/svg">
<circle cx="42.5" cy="42.5" r="42" stroke="white"/>
<path d="M40.1442 16.042C39.4724 15.3701 38.5791 15 37.6289 15C36.9039 15 36.2119 15.2155 35.6262 15.6161C35.0405 15.2154 34.3485 15 33.6235 15C32.6734 15 31.78 15.3701 31.1082 16.0419C30.4362 16.7138 30.0662 17.607 30.0662 18.5574C30.0662 19.5075 30.4362 20.4009 31.1082 21.0729L35.1136 25.078C35.2551 25.2195 35.4408 25.2903 35.6263 25.2903C35.8118 25.2903 35.9975 25.2195 36.1391 25.0779L40.1442 21.0727C41.5308 19.6855 41.5307 17.4288 40.1442 16.042ZM39.1185 20.0473L35.6264 23.5396L32.1338 20.0473C31.7359 19.6494 31.5167 19.1202 31.5167 18.5574C31.5167 17.9947 31.7357 17.4655 32.1337 17.0676C32.5316 16.6696 33.0607 16.4504 33.6235 16.4504C34.1863 16.4504 34.7154 16.6696 35.1136 17.0677C35.2495 17.2036 35.434 17.28 35.6264 17.28C35.8188 17.28 36.0032 17.2036 36.1391 17.0676C36.537 16.6696 37.0661 16.4504 37.6289 16.4504C38.1917 16.4504 38.7206 16.6696 39.1185 17.0676C39.9398 17.889 39.9397 19.2258 39.1185 20.0473Z" fill="white"/>
<path d="M46.8439 23.9149C46.4395 23.5102 45.9018 23.2875 45.3296 23.2875C44.9748 23.2875 44.6332 23.3733 44.3285 23.5349C44.0236 23.3733 43.6819 23.2875 43.327 23.2875C42.755 23.2875 42.2171 23.5103 41.813 23.9147C41.4085 24.319 41.1858 24.8568 41.1858 25.4287C41.1858 26.0007 41.4084 26.5384 41.813 26.9429L43.8159 28.9456C43.9519 29.0815 44.1364 29.1579 44.3288 29.1579C44.521 29.1579 44.7055 29.0815 44.8415 28.9455L46.8439 26.9428C47.6785 26.1079 47.6785 24.7494 46.8439 23.9149ZM45.818 25.9175L44.3286 27.4072L42.8385 25.9174C42.708 25.7869 42.6362 25.6134 42.6362 25.4288C42.6362 25.2442 42.708 25.0707 42.8386 24.9401C42.969 24.8097 43.1424 24.7378 43.3269 24.7378C43.5116 24.7378 43.6853 24.8098 43.8159 24.9404C43.9519 25.0763 44.1363 25.1527 44.3286 25.1527H44.3289C44.5212 25.1526 44.7056 25.0761 44.8416 24.9401C44.9719 24.8097 45.1451 24.7379 45.3295 24.7379C45.514 24.7379 45.6875 24.8098 45.818 24.9404C46.0874 25.2097 46.0872 25.648 45.818 25.9175Z" fill="white"/>
<path d="M58.5943 26.6803C58.4145 26.6803 54.1658 26.706 51.9285 28.9434L47.4325 33.4394L25.9513 28.0698C25.9461 28.0685 25.9408 28.0679 25.9356 28.0667C25.9218 28.0636 25.908 28.0608 25.8942 28.0585C25.8837 28.0567 25.8732 28.0552 25.8628 28.054C25.8503 28.0525 25.8378 28.0514 25.8253 28.0506C25.8136 28.0497 25.802 28.0491 25.7904 28.0489C25.7787 28.0487 25.7669 28.0488 25.7552 28.0491C25.7435 28.0495 25.7318 28.05 25.7201 28.0508C25.708 28.0518 25.6959 28.0532 25.6838 28.0547C25.6731 28.0561 25.6624 28.0574 25.652 28.0593C25.6384 28.0616 25.625 28.0645 25.6115 28.0676C25.6029 28.0697 25.5944 28.0716 25.5858 28.0739C25.5706 28.0779 25.5557 28.0828 25.5408 28.0879C25.5343 28.0901 25.5276 28.0923 25.521 28.0948C25.5052 28.1008 25.4896 28.1074 25.4741 28.1145C25.4685 28.117 25.463 28.1195 25.4576 28.1222C25.4423 28.1296 25.4274 28.1377 25.4127 28.1463C25.4069 28.1496 25.4009 28.153 25.3953 28.1565C25.382 28.1647 25.369 28.1735 25.3561 28.1826C25.3488 28.1877 25.3417 28.193 25.3346 28.1983C25.3239 28.2066 25.3134 28.2151 25.3032 28.2239C25.2943 28.2316 25.2856 28.2395 25.2771 28.2475C25.2724 28.2519 25.2674 28.2559 25.2628 28.2605L23.2119 30.3111C23.2084 30.3146 23.2055 30.3185 23.2021 30.3219C23.1928 30.3316 23.1839 30.3414 23.1751 30.3516C23.167 30.3611 23.1591 30.3707 23.1515 30.3805C23.1482 30.3847 23.1446 30.3886 23.1414 30.3929C23.1379 30.3976 23.135 30.4026 23.1316 30.4075C23.1237 30.4189 23.116 30.4304 23.1087 30.4422C23.1031 30.4511 23.0978 30.4601 23.0927 30.4692C23.0862 30.4809 23.0799 30.4927 23.0741 30.5047C23.0692 30.5147 23.0645 30.5246 23.0601 30.5347C23.0552 30.546 23.0506 30.5574 23.0463 30.5689C23.0422 30.5799 23.0382 30.5912 23.0346 30.6024C23.0311 30.6132 23.0279 30.624 23.025 30.6349C23.0218 30.647 23.0188 30.6591 23.0161 30.6712C23.0139 30.6817 23.0119 30.6922 23.0101 30.7027C23.0081 30.7152 23.0062 30.7277 23.0048 30.7402C23.0036 30.7509 23.0026 30.7617 23.0019 30.7724C23.001 30.7847 23.0004 30.7969 23.0001 30.8091C22.9999 30.8204 23 30.8316 23.0003 30.843C23.0007 30.8546 23.0011 30.8661 23.002 30.8777C23.0028 30.8897 23.0041 30.9017 23.0055 30.9136C23.0069 30.9244 23.0083 30.9351 23.0102 30.9456C23.0123 30.9582 23.0148 30.9707 23.0177 30.9831C23.0199 30.9932 23.0223 31.0031 23.025 31.0131C23.0284 31.0257 23.0323 31.0382 23.0364 31.0506C23.0396 31.0604 23.0428 31.0701 23.0466 31.0798C23.0511 31.0917 23.056 31.1036 23.0611 31.1153C23.0654 31.1254 23.0701 31.1353 23.0749 31.1452C23.0803 31.1559 23.086 31.1666 23.0919 31.1772C23.0977 31.1878 23.1039 31.1982 23.1103 31.2084C23.1162 31.2179 23.1223 31.2271 23.1286 31.2364C23.1362 31.2472 23.1441 31.2579 23.1523 31.2685C23.1586 31.2768 23.1653 31.2849 23.1721 31.293C23.1811 31.3035 23.1903 31.3138 23.2 31.3238C23.204 31.3281 23.2076 31.3327 23.2117 31.3368C23.2154 31.3405 23.2197 31.3437 23.2234 31.3474C23.2325 31.356 23.2418 31.3644 23.2513 31.3727C23.2614 31.3813 23.2716 31.3897 23.2819 31.3977C23.2858 31.4007 23.2894 31.4042 23.2934 31.4072L38.3419 42.5297L31.0494 49.8222L27.3726 48.5963C27.3654 48.5938 27.3582 48.5924 27.3509 48.5903C27.3374 48.5862 27.3239 48.5821 27.3101 48.5789C27.2983 48.5761 27.2864 48.5741 27.2745 48.5718C27.2636 48.5697 27.2528 48.5677 27.2418 48.5662C27.228 48.5643 27.2144 48.5631 27.2007 48.562C27.1912 48.5612 27.1819 48.5604 27.1724 48.56C27.158 48.5594 27.1437 48.5595 27.1292 48.5598C27.1201 48.56 27.1112 48.5601 27.1021 48.5606C27.0879 48.5614 27.0737 48.5628 27.0596 48.5645C27.0502 48.5656 27.0409 48.5667 27.0316 48.5681C27.0179 48.5702 27.0043 48.5729 26.9907 48.5759C26.9811 48.578 26.9717 48.58 26.9624 48.5823C26.9486 48.5859 26.9352 48.5901 26.9218 48.5944C26.9128 48.5973 26.9039 48.6 26.8949 48.6033C26.8806 48.6086 26.8664 48.6146 26.8525 48.6207C26.8449 48.624 26.8375 48.6271 26.83 48.6307C26.814 48.6384 26.7987 48.6468 26.7832 48.6556C26.779 48.6581 26.7745 48.6599 26.7703 48.6626L26.7608 48.6682C26.7596 48.6689 26.7584 48.6696 26.7572 48.6703L23.3581 50.7098C23.3563 50.7108 23.3547 50.7118 23.353 50.7129L23.3518 50.7136C23.3499 50.7147 23.3484 50.7161 23.3465 50.7172C23.328 50.7285 23.3098 50.7405 23.2923 50.7536C23.2867 50.7577 23.2815 50.7624 23.2761 50.7667C23.263 50.777 23.2499 50.7873 23.2376 50.7986C23.2291 50.8062 23.2215 50.8143 23.2135 50.8222C23.2048 50.8308 23.196 50.8392 23.1878 50.8482C23.177 50.8602 23.1672 50.8726 23.1573 50.8851C23.1526 50.8911 23.1475 50.8967 23.143 50.9029C23.1299 50.9203 23.118 50.9384 23.1067 50.9569C23.1056 50.9588 23.1043 50.9604 23.1031 50.9622C23.103 50.9624 23.1029 50.9626 23.1028 50.9628C23.078 51.0042 23.0575 51.0477 23.0414 51.0929C23.0345 51.1123 23.0289 51.1318 23.0238 51.1516C23.0231 51.1544 23.022 51.1571 23.0214 51.1599C23.0169 51.178 23.0135 51.1962 23.0104 51.2143C23.0096 51.2192 23.0083 51.224 23.0077 51.229C23.0053 51.2443 23.0042 51.2598 23.0029 51.2753C23.0023 51.2834 23.0011 51.2916 23.0008 51.2998C23.0002 51.3115 23.0005 51.3231 23.0006 51.3348C23.0005 51.347 23.0001 51.3591 23.0008 51.3713C23.0011 51.3791 23.0022 51.3868 23.0028 51.3945C23.0041 51.4104 23.0053 51.4261 23.0076 51.442C23.0083 51.4463 23.0094 51.4506 23.0101 51.4549C23.0132 51.4737 23.0167 51.4925 23.0214 51.5111C23.0216 51.512 23.0219 51.5128 23.0221 51.5137C23.0308 51.5473 23.0424 51.5805 23.056 51.6133C23.06 51.6231 23.0636 51.633 23.068 51.6426C23.0692 51.645 23.0707 51.6475 23.0718 51.6499C23.0813 51.6694 23.0913 51.6886 23.1024 51.7073C23.1027 51.7077 23.1028 51.7081 23.103 51.7085C23.1039 51.7099 23.1049 51.711 23.1058 51.7123C23.1198 51.7356 23.1356 51.7579 23.1524 51.7797C23.1574 51.786 23.1626 51.7923 23.1677 51.7985C23.1815 51.8151 23.196 51.831 23.2115 51.8465C23.2171 51.8522 23.2227 51.8582 23.2285 51.8638C23.2483 51.8824 23.2692 51.9002 23.2915 51.9167C23.2986 51.922 23.3062 51.9265 23.3135 51.9314C23.3262 51.9402 23.3384 51.9492 23.3518 51.9571L29.3925 55.5817L28.6816 56.2925C28.3984 56.5757 28.3984 57.0349 28.6816 57.318C28.8233 57.4596 29.0089 57.5305 29.1945 57.5305C29.38 57.5305 29.5656 57.4597 29.7073 57.318L30.4181 56.6072L34.0388 62.6415C34.0398 62.6432 34.0409 62.6449 34.0419 62.6466L34.0426 62.6478C34.043 62.6485 34.0436 62.6491 34.044 62.6498C34.0586 62.674 34.0749 62.6971 34.0925 62.7196C34.0971 62.7256 34.1019 62.7314 34.1067 62.7372C34.1208 62.7543 34.1359 62.7708 34.1519 62.7868C34.1572 62.7921 34.1623 62.7976 34.1677 62.8028C34.1878 62.8216 34.2088 62.8396 34.2314 62.8563C34.2379 62.8612 34.2449 62.8652 34.2516 62.8699C34.2647 62.879 34.2776 62.8883 34.2914 62.8966C34.2943 62.8984 34.2975 62.8996 34.3005 62.9012C34.3182 62.9116 34.3365 62.9203 34.3548 62.929C34.3662 62.9343 34.3772 62.9403 34.3887 62.945C34.4048 62.9516 34.4214 62.9566 34.4379 62.9621C34.4519 62.9667 34.4657 62.972 34.4799 62.9758C34.4942 62.9795 34.5088 62.9817 34.5231 62.9846C34.5394 62.9878 34.5556 62.9919 34.5721 62.994C34.5917 62.9965 34.6116 62.997 34.6316 62.9979C34.6424 62.9984 34.6532 63.0001 34.6638 63.0001C34.664 63.0001 34.6643 63 34.6645 63C34.6647 63 34.665 63.0001 34.6651 63.0001C34.6759 63.0001 34.6867 62.9984 34.6974 62.9979C34.7173 62.997 34.7372 62.9965 34.7568 62.994C34.7733 62.9919 34.7897 62.9879 34.8061 62.9845C34.8204 62.9817 34.8348 62.9795 34.849 62.9759C34.8633 62.9721 34.8773 62.9667 34.8915 62.9619C34.9078 62.9566 34.9241 62.9516 34.9401 62.945C34.9518 62.9402 34.9632 62.9341 34.9748 62.9286C34.9928 62.9201 35.0108 62.9115 35.0281 62.9013C35.0312 62.8996 35.0344 62.8983 35.0376 62.8966C35.052 62.8879 35.0654 62.8783 35.0789 62.8688C35.085 62.8646 35.0913 62.8609 35.0972 62.8564C35.12 62.8396 35.1411 62.8215 35.1614 62.8024C35.1666 62.7975 35.1716 62.7921 35.1767 62.787C35.1927 62.7708 35.208 62.7542 35.2224 62.7368C35.2271 62.7311 35.2319 62.7254 35.2364 62.7195C35.2538 62.6971 35.2702 62.674 35.2848 62.6498C35.2853 62.6491 35.2859 62.6484 35.2863 62.6476L35.2872 62.646C35.2881 62.6445 35.2892 62.6429 35.2901 62.6413L37.3373 59.2289C37.3418 59.2214 37.3454 59.2136 37.3495 59.206C37.3557 59.1948 37.362 59.1837 37.3675 59.1721C37.3729 59.1609 37.3778 59.1495 37.3826 59.1379C37.3868 59.1278 37.3913 59.1178 37.3951 59.1075C37.3997 59.0951 37.4037 59.0825 37.4075 59.0699C37.4106 59.06 37.4137 59.0503 37.4164 59.0402C37.4197 59.0276 37.4224 59.0148 37.4252 59.0021C37.4273 58.9917 37.4295 58.9812 37.4312 58.9706C37.433 58.9585 37.4344 58.9464 37.4357 58.9342C37.437 58.9227 37.4382 58.911 37.4389 58.8994C37.4396 58.8882 37.4398 58.8769 37.4399 58.8657C37.4401 58.8537 37.4402 58.8411 37.4397 58.8285C37.4392 58.8179 37.4383 58.8072 37.4374 58.7966C37.4364 58.7838 37.4353 58.771 37.4336 58.7581C37.432 58.747 37.4298 58.7359 37.4279 58.7249C37.4256 58.7129 37.4236 58.701 37.4207 58.689C37.4177 58.6765 37.414 58.6642 37.4102 58.6518C37.4079 58.6435 37.4061 58.6351 37.4033 58.6269L36.1772 54.95L57.053 34.0743C57.054 34.0732 57.0552 34.0722 57.0563 34.0712C59.2937 31.8338 59.3194 27.5853 59.3194 27.4055C59.3195 27.005 58.9948 26.6803 58.5943 26.6803ZM24.8327 30.7414L25.9978 29.5764L46.2365 34.6353L39.3791 41.4926L24.8327 30.7414ZM56.0331 33.043C56.0323 33.0439 56.0314 33.0445 56.0305 33.0454L34.8347 54.2413C34.8323 54.2438 34.8303 54.2464 34.8279 54.2488C34.818 54.2591 34.8087 54.2697 34.7993 54.2804C34.7924 54.2884 34.7854 54.2963 34.7789 54.3044C34.7717 54.3135 34.7651 54.323 34.7583 54.3325C34.7507 54.343 34.7432 54.3534 34.7363 54.3642C34.7315 54.3716 34.7273 54.3794 34.7228 54.3869C34.7151 54.4 34.7076 54.4129 34.7008 54.4262C34.6975 54.4328 34.6947 54.4396 34.6914 54.4464C34.6847 54.4608 34.678 54.4753 34.6722 54.49C34.6693 54.4975 34.6669 54.5052 34.6642 54.5128C34.6593 54.5268 34.6542 54.5409 34.6501 54.5551C34.6473 54.5653 34.6452 54.5756 34.6426 54.5858C34.6398 54.5977 34.6367 54.6096 34.6344 54.6217C34.6321 54.6346 34.6306 54.6478 34.6289 54.661C34.6276 54.6706 34.6261 54.6801 34.6251 54.6898C34.6239 54.7043 34.6235 54.7187 34.6231 54.7333C34.6229 54.7421 34.6223 54.7508 34.6223 54.7595C34.6224 54.7734 34.6234 54.7872 34.6243 54.801C34.6249 54.811 34.6253 54.8209 34.6264 54.8308C34.6277 54.8427 34.6296 54.8546 34.6315 54.8664C34.6334 54.8787 34.6352 54.8909 34.6379 54.903C34.6398 54.9127 34.6424 54.9223 34.6448 54.9318C34.6484 54.9462 34.6522 54.9604 34.6567 54.9746C34.6576 54.9776 34.6582 54.9807 34.6592 54.9838L35.9215 58.7695L34.6639 60.8656L31.4746 55.5505L34.4929 52.5322C34.7764 52.2488 34.7764 51.7896 34.4932 51.5064C34.2099 51.2232 33.7508 51.2232 33.4676 51.5064L30.4494 54.5246L25.1342 51.3353L27.2304 50.0776L31.0161 51.34C31.0185 51.3408 31.0209 51.3409 31.0233 51.3418C31.0556 51.3522 31.0884 51.3602 31.1215 51.3659C31.1296 51.3673 31.1376 51.3683 31.1457 51.3694C31.1756 51.3735 31.2056 51.3762 31.2357 51.3766C31.239 51.3767 31.2422 51.3775 31.2456 51.3775C31.2493 51.3775 31.2529 51.3766 31.2566 51.3766C31.2853 51.3762 31.3139 51.3737 31.3425 51.3699C31.3515 51.3687 31.3604 51.3675 31.3693 51.366C31.4001 51.3607 31.4307 51.3536 31.4608 51.3442C31.4669 51.3422 31.4728 51.34 31.4789 51.3378C31.5062 51.3285 31.533 51.3176 31.5594 51.3049C31.5643 51.3026 31.5694 51.3005 31.5743 51.298C31.6027 51.2835 31.6302 51.2669 31.6568 51.2485C31.6637 51.2437 31.6705 51.2384 31.6773 51.2334C31.6981 51.2179 31.7181 51.2013 31.7375 51.1833C31.7434 51.1778 31.7498 51.1727 31.7555 51.167C31.7564 51.1662 31.7573 51.1655 31.7581 51.1647L52.954 29.9688C54.265 28.6577 56.6157 28.2816 57.8268 28.1738C57.7205 29.383 57.3466 31.7271 56.0331 33.043Z" fill="white"/>
<path d="M57.9485 60.1729C57.9478 60.1611 57.9466 60.1493 57.9453 60.1375C57.944 60.1265 57.9424 60.1156 57.9405 60.1047C57.9383 60.0909 57.9356 60.0773 57.9325 60.0637C57.9313 60.0584 57.9307 60.0532 57.9294 60.0478L53.2806 41.4503C53.1835 41.0617 52.7895 40.8256 52.4012 40.9227C52.0126 41.0198 51.7764 41.4135 51.8735 41.8021L56.4226 60.0012L55.2577 61.1662L45.8788 48.4767C45.6408 48.1546 45.1867 48.0866 44.8646 48.3246C44.5425 48.5626 44.4745 49.0167 44.7125 49.3388L54.5921 62.7055C54.5945 62.7088 54.5975 62.7118 54.6001 62.7151C54.6114 62.7298 54.6234 62.7439 54.6359 62.7579C54.6426 62.7653 54.649 62.7728 54.6558 62.7799C54.6582 62.7823 54.6601 62.7849 54.6625 62.7872C54.6729 62.7976 54.6839 62.8068 54.6949 62.8165C54.7018 62.8227 54.7085 62.8294 54.7157 62.8353C54.736 62.8519 54.7569 62.8673 54.7783 62.8813C54.7843 62.8852 54.7905 62.8885 54.7965 62.8921C54.8131 62.9023 54.83 62.9122 54.8473 62.921C54.8552 62.9249 54.8632 62.9284 54.8712 62.9321C54.8873 62.9396 54.9036 62.9466 54.9201 62.9528C54.9285 62.956 54.937 62.9588 54.9455 62.9617C54.9622 62.9672 54.9791 62.9721 54.9959 62.9764C55.0045 62.9786 55.0129 62.9808 55.0215 62.9827C55.0394 62.9865 55.0575 62.9895 55.0756 62.9921C55.0833 62.9932 55.0909 62.9946 55.0986 62.9953C55.1236 62.9981 55.1488 62.9996 55.1739 62.9997C55.1746 62.9997 55.1753 62.9998 55.176 62.9998C55.1769 62.9998 55.1777 62.9996 55.1785 62.9996C55.2107 62.9995 55.2429 62.9965 55.2748 62.9921C55.2825 62.991 55.29 62.9901 55.2977 62.9888C55.3295 62.9834 55.3611 62.976 55.3921 62.9663C55.3981 62.9644 55.4041 62.9621 55.41 62.96C55.4404 62.9496 55.4703 62.9374 55.4994 62.923C55.5021 62.9216 55.5047 62.9205 55.5075 62.9192C55.5387 62.9032 55.5687 62.8842 55.5977 62.8633C55.6005 62.8612 55.6036 62.8599 55.6065 62.8578C55.6107 62.8547 55.6143 62.8513 55.6183 62.8482C55.6286 62.8403 55.6386 62.8319 55.6484 62.8234C55.6581 62.8152 55.6675 62.8067 55.6766 62.798C55.6804 62.7943 55.6845 62.7912 55.6883 62.7874L57.739 60.7367C57.743 60.7326 57.7466 60.7281 57.7506 60.724C57.7597 60.7144 57.7684 60.7047 57.7769 60.6947C57.7845 60.6854 57.792 60.6762 57.7993 60.6669C57.8059 60.6582 57.8123 60.6495 57.8185 60.6406C57.8264 60.6295 57.8338 60.6183 57.8411 60.6069C57.8459 60.5989 57.8506 60.5909 57.8552 60.5829C57.8624 60.5703 57.8693 60.5577 57.8756 60.5449C57.8795 60.5368 57.8833 60.5287 57.8869 60.5204C57.8926 60.5076 57.8983 60.4947 57.9032 60.4815C57.9068 60.4722 57.9099 60.4628 57.9131 60.4534C57.9172 60.4412 57.9211 60.429 57.9245 60.4167C57.9276 60.4055 57.9301 60.3942 57.9328 60.383C57.9352 60.372 57.9376 60.3612 57.9395 60.3501C57.9418 60.3373 57.9434 60.3247 57.945 60.3118C57.9463 60.3017 57.9474 60.2916 57.9482 60.2815C57.9493 60.2682 57.9498 60.2549 57.9501 60.2416C57.9504 60.2312 57.9506 60.2209 57.9504 60.2105C57.9501 60.198 57.9494 60.1855 57.9485 60.1729Z" fill="white"/>
</svg>
